<svg xmlns="http://www.w3.org/2000/svg" viewBox="0.0 47.4 761.5 220.2" role="img" aria-label="reproots">
  <defs>
    <linearGradient id="ring-grad-logo" x1="0" y1="0" x2="1" y2="0">
      <stop offset="0" stop-color="#3d63c9" />
      <stop offset="0.55" stop-color="#3d63c9" />
      <stop offset="1" stop-color="#e0622c" />
    </linearGradient>
  </defs>
  <path fill="#1b1d22" d="M30 110.20Q34.60 100 44.10 94.40Q53.60 88.80 67.40 88.80L67.40 103.40L63.60 103.40Q48.40 103.40 39.20 111.60Q30 119.80 30 139L30 200L16 200L16 90.80L30 90.80L30 110.20M187.20 139.80Q187.20 147 186.80 150.80L96.20 150.80Q96.80 163.20 102.20 172Q107.60 180.80 116.40 185.30Q125.20 189.80 135.60 189.80Q149.20 189.80 158.50 183.20Q167.80 176.60 170.80 165.40L185.60 165.40Q181.60 181.40 168.50 191.50Q155.40 201.60 135.60 201.60Q120.20 201.60 108 194.70Q95.80 187.80 88.90 175.10Q82 162.40 82 145.40Q82 128.40 88.80 115.60Q95.60 102.80 107.80 96Q120 89.20 135.60 89.20Q151.20 89.20 162.90 96Q174.60 102.80 180.90 114.30Q187.20 125.80 187.20 139.80M173 139.40Q173.20 127.20 168.10 118.60Q163 110 154.20 105.60Q145.40 101.20 135 101.20Q119.40 101.20 108.40 111.20Q97.40 121.20 96.20 139.40L173 139.40M226.60 114.80Q231.80 103.80 243.10 96.50Q254.40 89.20 270 89.20Q284.80 89.20 296.70 96.10Q308.60 103 315.30 115.70Q322 128.40 322 145.20Q322 162 315.30 174.80Q308.60 187.60 296.70 194.60Q284.80 201.60 270 201.60Q254.60 201.60 243.20 194.30Q231.80 187 226.60 176L226.60 251.60L212.80 251.60L212.80 90.80L226.60 90.80L226.60 114.80M307.80 145.20Q307.80 131.60 302.50 121.70Q297.20 111.80 288 106.60Q278.80 101.40 267.20 101.40Q256 101.40 246.70 106.80Q237.40 112.20 232 122.20Q226.60 132.20 226.60 145.40Q226.60 158.60 232 168.60Q237.40 178.60 246.70 184Q256 189.40 267.20 189.40Q278.80 189.40 288 184.10Q297.20 178.80 302.50 168.70Q307.80 158.60 307.80 145.20" />
  <circle cx="399.7" cy="145.4" r="50.9" fill="none" stroke="url(#ring-grad-logo)" stroke-width="14" />
  <circle cx="504.4" cy="145.4" r="50.9" fill="none" stroke="#e0622c" stroke-width="14" />
  <path fill="#1b1d22" d="M636.51 102.60L606.51 102.60L606.51 170.40Q606.51 180.40 610.31 184.20Q614.11 188 623.71 188L636.51 188L636.51 200L621.51 200Q606.71 200 599.51 193.10Q592.31 186.20 592.31 170.40L592.31 102.60L577.11 102.60L577.11 90.80L592.31 90.80L592.31 63.40L606.51 63.40L606.51 90.80L636.51 90.80L636.51 102.60M697.11 201.60Q678.31 201.60 666.41 192.90Q654.51 184.20 653.11 169.20L667.51 169.20Q668.51 178.40 676.21 184.10Q683.91 189.80 696.91 189.80Q708.31 189.80 714.81 184.40Q721.31 179 721.31 171Q721.31 165.40 717.71 161.80Q714.11 158.20 708.61 156.10Q703.11 154 693.71 151.60Q681.51 148.40 673.91 145.20Q666.31 142 661.01 135.70Q655.71 129.40 655.71 118.80Q655.71 110.80 660.51 104Q665.31 97.20 674.11 93.20Q682.91 89.20 694.11 89.20Q711.71 89.20 722.51 98.10Q733.31 107 734.11 122.60L720.11 122.60Q719.51 113 712.61 107.10Q705.71 101.20 693.71 101.20Q683.11 101.20 676.51 106.20Q669.91 111.20 669.91 118.60Q669.91 125 673.81 129.10Q677.71 133.20 683.51 135.50Q689.31 137.80 699.11 140.60Q710.91 143.80 717.91 146.80Q724.91 149.80 729.91 155.60Q734.91 161.40 735.11 171Q735.11 179.80 730.31 186.70Q725.51 193.60 716.91 197.60Q708.31 201.60 697.11 201.60" />
</svg>
