<svg xmlns="http://www.w3.org/2000/svg" width="1200" height="630" viewBox="0 0 1200 630">
  <rect width="1200" height="630" fill="#eff0f2" />
  <path d="M48 0V630M96 0V630M144 0V630M192 0V630M240 0V630M288 0V630M336 0V630M384 0V630M432 0V630M480 0V630M528 0V630M576 0V630M624 0V630M672 0V630M720 0V630M768 0V630M816 0V630M864 0V630M912 0V630M960 0V630M1008 0V630M1056 0V630M1104 0V630M1152 0V630M0 51H1200M0 99H1200M0 147H1200M0 195H1200M0 243H1200M0 291H1200M0 339H1200M0 387H1200M0 435H1200M0 483H1200M0 531H1200M0 579H1200M0 627H1200" stroke="rgba(31,36,45,0.07)" stroke-width="1" />
  <rect x="28" y="28" width="1144" height="574" fill="none" stroke="rgba(31,36,45,0.85)" stroke-width="2" />
  <g fill="none" stroke="rgba(31,36,45,0.4)" stroke-width="1.5">
    <circle cx="58" cy="58" r="9" /><path d="M52.5 58H63.5M58 52.5V63.5" /><circle cx="1142" cy="58" r="9" /><path d="M1136.5 58H1147.5M1142 52.5V63.5" /><circle cx="58" cy="572" r="9" /><path d="M52.5 572H63.5M58 566.5V577.5" /><circle cx="1142" cy="572" r="9" /><path d="M1136.5 572H1147.5M1142 566.5V577.5" />
  </g>
  <svg x="215.25" y="213" width="769.5" height="142.5" viewBox="0 0 513 95">
  <defs>
    <mask id="graft-og" maskUnits="userSpaceOnUse" x="183.8" y="-80" width="76" height="92">
      <rect x="183.8" y="-80" width="76" height="92" fill="#fff" />
      <path d="M187.5 -5.0 L253.4 -43.0" stroke="#000" stroke-width="2.4" />
    </mask>
  </defs>
  <g transform="translate(-15.5 5)">
  <g fill="none" stroke="#1358bb" stroke-width="3.5" stroke-linecap="butt" stroke-linejoin="miter">
    <path d="M48 47 L64.45 37.5 V18.5 L48 9 L31.55 18.5 V37.5 Z" />
    <path d="M48 47 V28 M48 28 L64.45 18.5 M48 28 L31.55 18.5" />
    <path d="M23.5 55 L48 69.14 L72.5 55" />
    <path d="M23.5 55 L35.4 48.1" />
    <path d="M72.5 55 L60.6 48.1" />
    <path d="M23.5 55 L48 82 L72.5 55" />
    <path d="M35.75 69.5 L48 76.57 L60.25 69.5" />
  </g>
  <path d="M43 54.5 L48 51.61 L53 54.5 L48 57.39 Z" fill="#d56650" />
  </g>
  <g transform="translate(76.2 75.5)">
    <path fill="#1f242d" d="M17.50 0L6.80 0L6.80-48L17.50-48L17.50-37.50L15.90-39Q18.20-43.90 21.90-46.75Q25.60-49.60 30.30-49.60L30.30-49.60Q34.20-49.60 37.75-47.75Q41.30-45.90 43.80-42.70Q46.30-39.50 47.40-35.50L47.40-35.50L38.30-30.30Q37.50-33.10 36.05-35.30Q34.60-37.50 32.45-38.80Q30.30-40.10 27.70-40.10L27.70-40.10Q24.70-40.10 22.40-38.25Q20.10-36.40 18.80-33.10Q17.50-29.80 17.50-25.20L17.50-25.20L17.50 0Z" />
    <path fill="#1f242d" d="M74.10 1.60L74.10 1.60Q66.90 1.60 61.00-1.80Q55.10-5.20 51.65-11.05Q48.20-16.90 48.20-24L48.20-24Q48.20-31.20 51.65-37Q55.10-42.80 61.00-46.20Q66.90-49.60 74-49.60L74-49.60Q81.30-49.60 87.15-46.20Q93-42.80 96.45-37Q99.90-31.20 99.90-24L99.90-24Q99.90-16.90 96.45-11.05Q93-5.20 87.15-1.80Q81.30 1.60 74.10 1.60ZM74.10-8.10L74.10-8.10Q78.40-8.10 81.90-10.20Q85.40-12.30 87.50-15.95Q89.60-19.60 89.60-24L89.60-24Q89.60-28.50 87.50-32.10Q85.40-35.70 81.90-37.85Q78.40-40 74.10-40L74.10-40Q69.80-40 66.25-37.85Q62.70-35.70 60.60-32.10Q58.50-28.50 58.50-24L58.50-24Q58.50-19.60 60.60-15.95Q62.70-12.30 66.20-10.20Q69.70-8.10 74.10-8.10Z" />
    <path fill="#1f242d" d="M130.40 1.60L130.40 1.60Q123.20 1.60 117.30-1.80Q111.40-5.20 107.95-11.05Q104.50-16.90 104.50-24L104.50-24Q104.50-31.20 107.95-37Q111.40-42.80 117.30-46.20Q123.20-49.60 130.30-49.60L130.30-49.60Q137.60-49.60 143.45-46.20Q149.30-42.80 152.75-37Q156.20-31.20 156.20-24L156.20-24Q156.20-16.90 152.75-11.05Q149.30-5.20 143.45-1.80Q137.60 1.60 130.40 1.60ZM130.40-8.10L130.40-8.10Q134.70-8.10 138.20-10.20Q141.70-12.30 143.80-15.95Q145.90-19.60 145.90-24L145.90-24Q145.90-28.50 143.80-32.10Q141.70-35.70 138.20-37.85Q134.70-40 130.40-40L130.40-40Q126.10-40 122.55-37.85Q119.00-35.70 116.90-32.10Q114.80-28.50 114.80-24L114.80-24Q114.80-19.60 116.90-15.95Q119.00-12.30 122.50-10.20Q126.00-8.10 130.40-8.10Z" />
    <path fill="#1f242d" d="M184.70 0L183.30 0Q178.40 0 174.40-2.55Q170.40-5.10 168.05-9.35Q165.70-13.60 165.70-18.90L165.70-18.90L165.70-64.90L176.40-64.90L176.40-18.90Q176.40-16.40 177.50-14.30Q178.60-12.20 180.50-11Q182.40-9.80 184.70-9.80L184.70-9.80L193.00-9.80L193.00 0L184.70 0ZM190.80-40L158.90-40L158.90-48L190.80-48L190.80-40Z" />
    <path fill="#d56650" mask="url(#graft-og)" d="M220.20 1.60L220.20 1.60Q214.00 1.60 209.00-0.80Q204.00-3.20 201.05-7.35Q198.10-11.50 198.10-16.50L198.10-16.50L208.60-16.50Q208.60-13.90 210.20-11.80Q211.80-9.70 214.50-8.45Q217.20-7.20 220.60-7.20L220.60-7.20Q223.40-7.20 225.70-8.10Q228.00-9 229.30-10.60Q230.60-12.20 230.60-14.20L230.60-14.20Q230.60-16.20 229.25-17.40Q227.90-18.60 225.55-19.40Q223.20-20.20 220.40-20.80L220.40-20.80Q217.20-21.50 213.75-22.30Q210.30-23.10 207.35-24.50Q204.40-25.90 202.55-28.25Q200.70-30.60 200.70-34.40L200.70-34.40Q200.70-38.70 203.10-42.10Q205.50-45.50 209.60-47.55Q213.70-49.60 218.60-49.60L218.60-49.60Q224.10-49.60 228.50-47.60Q232.90-45.60 235.55-42.20Q238.20-38.80 238.20-34.60L238.20-34.60L227.70-34.60Q227.70-36.40 226.50-37.80Q225.30-39.20 223.25-40Q221.20-40.80 218.60-40.80L218.60-40.80Q216.50-40.80 214.70-40.10Q212.90-39.40 211.90-38.20Q210.90-37 210.90-35.50L210.90-35.50Q210.90-34.10 211.90-33.15Q212.90-32.20 214.55-31.60Q216.20-31 218.40-30.55Q220.60-30.10 223.00-29.60L223.00-29.60Q226.10-29 229.25-28.05Q232.40-27.10 235.05-25.55Q237.70-24 239.25-21.40Q240.80-18.80 240.80-14.90L240.80-14.90Q240.80-10.30 238.05-6.55Q235.30-2.80 230.65-0.60Q226.00 1.60 220.20 1.60Z" />
    <path fill="#1f242d" d="M270.60 1.60L270.60 1.60Q263.30 1.60 257.35-1.80Q251.40-5.20 247.90-11.05Q244.40-16.90 244.40-24L244.40-24Q244.40-31.20 247.90-37Q251.40-42.80 257.35-46.20Q263.30-49.60 270.60-49.60L270.60-49.60Q275.70-49.60 280.10-47.95Q284.50-46.30 287.95-43.30Q291.40-40.30 293.60-36.20L293.60-36.20L285.40-31.20Q284.20-33.90 281.95-35.85Q279.70-37.80 276.85-38.95Q274.00-40.10 270.80-40.10L270.80-40.10Q266.20-40.10 262.55-38Q258.90-35.90 256.75-32.25Q254.60-28.60 254.60-24L254.60-24Q254.60-19.50 256.75-15.85Q258.90-12.20 262.55-10.10Q266.20-8 270.80-8L270.80-8Q274.00-8 276.80-9.10Q279.60-10.20 281.85-12.10Q284.10-14 285.30-16.60L285.30-16.60L294.10-13.10Q292.20-8.80 288.65-5.45Q285.10-2.10 280.50-0.25Q275.90 1.60 270.60 1.60Z" />
    <path fill="#1f242d" d="M312.00 0L301.70 0L301.70-48L312.00-48L312.00 0ZM306.90-56.70L306.90-56.70Q304.20-56.70 302.35-58.55Q300.50-60.40 300.50-63L300.50-63Q300.50-65.70 302.35-67.60Q304.20-69.50 306.90-69.50L306.90-69.50Q309.60-69.50 311.45-67.60Q313.30-65.70 313.30-63L313.30-63Q313.30-60.40 311.45-58.55Q309.60-56.70 306.90-56.70Z" />
    <path fill="#1f242d" d="M346 1.60L346 1.60Q338.80 1.60 332.90-1.80Q327-5.20 323.55-11.05Q320.10-16.90 320.10-24L320.10-24Q320.10-31.20 323.55-37Q327-42.80 332.90-46.20Q338.80-49.60 345.90-49.60L345.90-49.60Q353.20-49.60 359.05-46.20Q364.90-42.80 368.35-37Q371.80-31.20 371.80-24L371.80-24Q371.80-16.90 368.35-11.05Q364.90-5.20 359.05-1.80Q353.20 1.60 346 1.60ZM346-8.10L346-8.10Q350.30-8.10 353.80-10.20Q357.30-12.30 359.40-15.95Q361.50-19.60 361.50-24L361.50-24Q361.50-28.50 359.40-32.10Q357.30-35.70 353.80-37.85Q350.30-40 346-40L346-40Q341.70-40 338.15-37.85Q334.60-35.70 332.50-32.10Q330.40-28.50 330.40-24L330.40-24Q330.40-19.60 332.50-15.95Q334.60-12.30 338.10-10.20Q341.60-8.10 346-8.10Z" />
    <path fill="#1f242d" d="M390.60 0L379.90 0L379.90-48L390.60-48L390.60-36.80L388.90-38.70Q391.70-43.60 396.35-46.60Q401-49.60 406.70-49.60L406.70-49.60Q412.90-49.60 417.85-46.45Q422.80-43.30 425.70-38.05Q428.60-32.80 428.60-26.20L428.60-26.20L428.60 0L417.90 0L417.90-26.20Q417.90-30 416.10-33.10Q414.30-36.20 411.20-38.05Q408.10-39.90 404.30-39.90L404.30-39.90Q400.50-39.90 397.40-37.95Q394.30-36 392.45-32.65Q390.60-29.30 390.60-25.20L390.60-25.20L390.60 0Z" />
  </g>
</svg>

  <g transform="translate(505.45 435)" fill="#1f242d" opacity="0.62">
    <path d="M5.30 0L2.29 0L0.62-15.62L2.93-15.62L4.22-1.89L3.96-1.89L5.59-13.86L7.61-13.86L9.24-1.89L8.98-1.89L10.27-15.62L12.58-15.62L10.91 0L7.90 0L6.34-11.44L6.86-11.44L5.30 0Z M27.54 0L17.78 0L17.78-15.62L27.37-15.62L27.37-13.44L20.09-13.44L20.09-8.89L27.10-8.89L27.10-6.78L20.09-6.78L20.09-2.18L27.54-2.18L27.54 0Z M38.57 0L33.51 0L33.51-15.62L38.04-15.62Q40.61-15.62 41.95-14.50Q43.30-13.38 43.30-11.37L43.30-11.37Q43.30-10.41 42.86-9.65Q42.42-8.89 41.57-8.44Q40.72-7.99 39.56-7.96L39.56-7.96L39.56-8.10Q40.99-8.10 41.97-7.62Q42.94-7.15 43.45-6.30Q43.96-5.46 43.96-4.33L43.96-4.33Q43.96-2.27 42.54-1.13Q41.12 0 38.57 0L38.57 0Z M35.82-6.86L35.82-2.16L38.59-2.16Q40.11-2.16 40.83-2.76Q41.56-3.37 41.56-4.44L41.56-4.44Q41.56-5.59 40.80-6.23Q40.04-6.86 38.59-6.86L38.59-6.86L35.82-6.86Z M35.82-13.46L35.82-9.00L38.08-9.00Q39.53-9.00 40.22-9.58Q40.90-10.16 40.90-11.22L40.90-11.22Q40.90-12.30 40.22-12.88Q39.53-13.46 38.08-13.46L38.08-13.46L35.82-13.46Z M75.06 0L65.30 0L65.30-15.62L74.89-15.62L74.89-13.44L67.61-13.44L67.61-8.89L74.62-8.89L74.62-6.78L67.61-6.78L67.61-2.18L75.06-2.18L75.06 0Z M82.96 0L80.70 0L80.70-15.62L83.51-15.62L89.03-2.35L88.64-2.27L88.64-15.62L90.90-15.62L90.90 0L88.09 0L82.57-13.27L82.96-13.38L82.96 0Z M101.62 0.35L101.62 0.35Q99.92 0.35 98.63-0.57Q97.33-1.50 96.58-3.31Q95.83-5.13 95.83-7.79L95.83-7.79Q95.83-10.32 96.54-12.14Q97.24-13.97 98.55-14.97Q99.86-15.97 101.68-15.97L101.68-15.97Q103.16-15.97 104.28-15.33Q105.40-14.70 106.16-13.53Q106.92-12.36 107.25-10.80L107.25-10.80L104.85-10.65Q104.52-12.08 103.74-12.94Q102.96-13.79 101.71-13.79L101.71-13.79Q100.61-13.79 99.83-13.10Q99.04-12.41 98.64-11.07Q98.23-9.72 98.23-7.79L98.23-7.79Q98.23-5.87 98.65-4.54Q99.07-3.21 99.87-2.52Q100.67-1.83 101.82-1.83L101.82-1.83Q102.83-1.83 103.55-2.34Q104.28-2.86 104.69-3.79Q105.09-4.73 105.14-5.96L105.14-5.96L101.71-5.96L101.71-7.96L107.27-7.96L107.27 0L105.40 0L105.29-3.59L105.89-3.61Q105.64-2.49 105.11-1.58Q104.57-0.68 103.71-0.16Q102.85 0.35 101.62 0.35Z M122.36 0L112.60 0L112.60-2.18L116.34-2.18L116.34-13.44L112.60-13.44L112.60-15.62L122.36-15.62L122.36-13.44L118.62-13.44L118.62-2.18L122.36-2.18L122.36 0Z M130.48 0L128.22 0L128.22-15.62L131.03-15.62L136.55-2.35L136.16-2.27L136.16-15.62L138.42-15.62L138.42 0L135.61 0L130.09-13.27L130.48-13.38L130.48 0Z M154.26 0L144.50 0L144.50-15.62L154.09-15.62L154.09-13.44L146.81-13.44L146.81-8.89L153.82-8.89L153.82-6.78L146.81-6.78L146.81-2.18L154.26-2.18L154.26 0Z M170.10 0L160.34 0L160.34-15.62L169.93-15.62L169.93-13.44L162.65-13.44L162.65-8.89L169.66-8.89L169.66-6.78L162.65-6.78L162.65-2.18L170.10-2.18L170.10 0Z M178.02 0L175.71 0L175.71-15.62L180.58-15.62Q183.06-15.62 184.48-14.37Q185.90-13.11 185.90-10.96L185.90-10.96Q185.90-9.83 185.41-8.98Q184.91-8.12 184.11-7.63Q183.30-7.15 182.40-7.08L182.40-7.08L182.31-7.35Q183.94-7.28 184.75-6.61Q185.55-5.94 185.68-4.44L185.68-4.44L186.08 0L183.77 0L183.41-4.00Q183.35-4.77 183.08-5.24Q182.82-5.70 182.27-5.90Q181.72-6.09 180.75-6.09L180.75-6.09L178.02-6.09L178.02 0Z M178.02-13.44L178.02-8.25L180.53-8.25Q181.98-8.25 182.75-8.93Q183.52-9.61 183.52-10.85L183.52-10.85Q183.52-12.10 182.75-12.77Q181.98-13.44 180.53-13.44L180.53-13.44L178.02-13.44Z" />
  </g>
</svg>
